<svg xmlns="http://www.w3.org/2000/svg" xmlns:xlink="http://www.w3.org/1999/xlink" version="1.1" style="width:877px;height:1075px;background:#FFFFFF;" width="877px" height="1075px" viewBox="0 0 877 1075" zoomAndPan="magnify" preserveAspectRatio="none" contentStyleType="text/css"><defs/><g font-family="sans-serif" lengthAdjust="spacing"><ellipse cx="564" cy="15" rx="10" ry="10" fill="#222" style="stroke:#222;stroke-width:1;"/><rect x="464" y="45" width="199" height="32" fill="#F1F1F1" rx="12" ry="12"/><text x="474" y="64" fill="#000" font-size="12" textLength="179">Officer accesses Document Module</text><rect x="423" y="97" width="282" height="44" fill="#F1F1F1" rx="12" ry="12"/><text x="433" y="116" fill="#000" font-size="12" textLength="115">Select Document Type</text><text x="433" y="128" fill="#000" font-size="12" textLength="262">(Activity Proposal, Budget Request, Resolution, etc.)</text><rect x="476" y="205" width="176" height="32" fill="#F1F1F1" rx="12" ry="12"/><text x="486" y="224" fill="#000" font-size="12" textLength="156">Fill out / update online form fields</text><rect x="455" y="247" width="217" height="194" fill="none" style="stroke:#000;stroke-width:2;"/><path d="M583,247 L583,254 L573,264 L455,264" style="stroke:#000;stroke-width:2;" fill="none"/><text x="458" y="259" fill="#000" font-size="14" textLength="117">System Automation</text><rect x="465" y="281" width="197" height="44" fill="#F1F1F1" rx="12" ry="12"/><text x="475" y="300" fill="#000" font-size="12" textLength="163">Auto-populate Organization Info</text><text x="475" y="312" fill="#000" font-size="12" textLength="177">(Logo, School, Officer Titles, Dates)</text><rect x="480" y="345" width="167" height="32" fill="#F1F1F1" rx="12" ry="12"/><text x="490" y="364" fill="#000" font-size="12" textLength="147">Auto-calculate Budget Totals</text><rect x="489" y="397" width="149" height="32" fill="#F1F1F1" rx="12" ry="12"/><text x="499" y="416" fill="#000" font-size="12" textLength="129">Generate Formatted PDF</text><path d="M670,466 L670,473 L650,477 L670,481 L670,488 A0,0 0 0 0 670,488 L841,488 A0,0 0 0 0 841,488 L841,476 L831,466 L670,466 A0,0 0 0 0 670,466" fill="#FEFFDD"/><path d="M831,466 L831,476 L841,476 L831,466" fill="#FEFFDD"/><text x="676" y="481" fill="#000" font-size="13" textLength="149">Status = UNDER_REVIEW</text><rect x="477" y="461" width="173" height="32" fill="#F1F1F1" rx="12" ry="12"/><text x="487" y="480" fill="#000" font-size="12" textLength="153">Submit Document for Approval</text><rect x="439" y="513" width="249" height="32" fill="#F1F1F1" rx="12" ry="12"/><text x="449" y="532" fill="#000" font-size="12" textLength="229">Notify Reviewer (President / Committee Head)</text><polygon points="530,565,598,565,610,577,598,589,530,589,518,577,530,565" fill="#F1F1F1"/><text x="530" y="580" fill="#000" font-size="11" textLength="68">Initial Review?</text><text x="471" y="575" fill="#000" font-size="11" textLength="47">Approved</text><text x="610" y="575" fill="#000" font-size="11" textLength="43">Rejected</text><polygon points="328,599,459,599,471,611,459,623,328,623,316,611,328,599" fill="#F1F1F1"/><text x="328" y="614" fill="#000" font-size="11" textLength="130">Requires Adviser Approval?</text><text x="298" y="609" fill="#000" font-size="11" textLength="19">Yes</text><text x="471" y="609" fill="#000" font-size="11" textLength="14">No</text><rect x="140" y="633" width="182" height="32" fill="#F1F1F1" rx="12" ry="12"/><text x="150" y="652" fill="#000" font-size="12" textLength="162">Forward to Organization Adviser</text><rect x="134" y="700" width="194" height="32" fill="#F1F1F1" rx="12" ry="12"/><text x="144" y="719" fill="#000" font-size="12" textLength="174">Adviser reviews Proposal &amp; Budget</text><polygon points="188,767,273,767,285,779,273,791,188,791,176,779,188,767" fill="#F1F1F1"/><text x="188" y="782" fill="#000" font-size="11" textLength="85">Adviser Decision?</text><text x="129" y="777" fill="#000" font-size="11" textLength="47">Approved</text><text x="285" y="777" fill="#000" font-size="11" textLength="95">Revision Requested</text><rect x="13" y="801" width="203" height="32" fill="#F1F1F1" rx="12" ry="12"/><text x="23" y="820" fill="#000" font-size="12" textLength="183">Set Document Status to APPROVED</text><rect x="6" y="853" width="217" height="32" fill="#F1F1F1" rx="12" ry="12"/><text x="16" y="872" fill="#000" font-size="12" textLength="197">Auto-generate Notification to Secretary</text><rect x="24" y="905" width="181" height="32" fill="#F1F1F1" rx="12" ry="12"/><text x="34" y="924" fill="#000" font-size="12" textLength="161">Lock version for Digital Archiving</text><ellipse cx="114" cy="968" rx="11" ry="11" fill="none" style="stroke:#222;stroke-width:1;"/><ellipse cx="114" cy="968" rx="6" ry="6" fill="#222" style="stroke:#222;stroke-width:1;"/><rect x="279" y="801" width="137" height="32" fill="#F1F1F1" rx="12" ry="12"/><text x="289" y="820" fill="#000" font-size="12" textLength="117">Log Review Comments</text><rect x="243" y="853" width="209" height="32" fill="#F1F1F1" rx="12" ry="12"/><text x="253" y="872" fill="#000" font-size="12" textLength="189">Set Status to REVISION_REQUIRED</text><rect x="277" y="905" width="141" height="32" fill="#F1F1F1" rx="12" ry="12"/><text x="287" y="924" fill="#000" font-size="12" textLength="121">Notify Document Author</text><rect x="482" y="633" width="149" height="32" fill="#F1F1F1" rx="12" ry="12"/><text x="492" y="652" fill="#000" font-size="12" textLength="129">Set Status to APPROVED</text><rect x="499" y="700" width="115" height="32" fill="#F1F1F1" rx="12" ry="12"/><text x="509" y="719" fill="#000" font-size="12" textLength="95">Archive Document</text><ellipse cx="556" cy="778" rx="11" ry="11" fill="none" style="stroke:#222;stroke-width:1;"/><ellipse cx="556" cy="778" rx="6" ry="6" fill="#222" style="stroke:#222;stroke-width:1;"/><rect x="668" y="599" width="132" height="32" fill="#F1F1F1" rx="12" ry="12"/><text x="678" y="618" fill="#000" font-size="12" textLength="112">Log Rejection Reason</text><rect x="661" y="666" width="145" height="32" fill="#F1F1F1" rx="12" ry="12"/><text x="671" y="685" fill="#000" font-size="12" textLength="125">Set Status to REJECTED</text><rect x="691" y="733" width="86" height="32" fill="#F1F1F1" rx="12" ry="12"/><text x="701" y="752" fill="#000" font-size="12" textLength="66">Notify Author</text><ellipse cx="734" cy="811" rx="11" ry="11" fill="none" style="stroke:#222;stroke-width:1;"/><ellipse cx="734" cy="811" rx="6" ry="6" fill="#222" style="stroke:#222;stroke-width:1;"/><polygon points="564,161,576,173,564,185,552,173,564,161" fill="#F1F1F1"/><polygon points="517,999,610,999,622,1011,610,1023,517,1023,505,1011,517,999" fill="#F1F1F1"/><text x="517" y="1014" fill="#000" font-size="11" textLength="93">Revision Required?</text><text x="622" y="1009" fill="#000" font-size="11" textLength="19">Yes</text><ellipse cx="564" cy="1054" rx="11" ry="11" fill="none" style="stroke:#222;stroke-width:1;"/><ellipse cx="564" cy="1054" rx="6" ry="6" fill="#222" style="stroke:#222;stroke-width:1;"/><line x1="564" y1="25" x2="564" y2="45" style="stroke:#181818;stroke-width:1;"/><polygon points="560,35,564,45,568,35,564,39" fill="#181818" style="stroke:#181818;stroke-width:1;stroke-linejoin:miter;stroke-miterlimit:10;"/><line x1="564" y1="77" x2="564" y2="97" style="stroke:#181818;stroke-width:1;"/><polygon points="560,87,564,97,568,87,564,91" fill="#181818" style="stroke:#181818;stroke-width:1;stroke-linejoin:miter;stroke-miterlimit:10;"/><line x1="564" y1="325" x2="564" y2="345" style="stroke:#181818;stroke-width:1;"/><polygon points="560,335,564,345,568,335,564,339" fill="#181818" style="stroke:#181818;stroke-width:1;stroke-linejoin:miter;stroke-miterlimit:10;"/><line x1="564" y1="377" x2="564" y2="397" style="stroke:#181818;stroke-width:1;"/><polygon points="560,387,564,397,568,387,564,391" fill="#181818" style="stroke:#181818;stroke-width:1;stroke-linejoin:miter;stroke-miterlimit:10;"/><line x1="564" y1="237" x2="564" y2="281" style="stroke:#181818;stroke-width:1;"/><polygon points="560,271,564,281,568,271,564,275" fill="#181818" style="stroke:#181818;stroke-width:1;stroke-linejoin:miter;stroke-miterlimit:10;"/><line x1="564" y1="429" x2="564" y2="461" style="stroke:#181818;stroke-width:1;"/><polygon points="560,451,564,461,568,451,564,455" fill="#181818" style="stroke:#181818;stroke-width:1;stroke-linejoin:miter;stroke-miterlimit:10;"/><line x1="564" y1="493" x2="564" y2="513" style="stroke:#181818;stroke-width:1;"/><polygon points="560,503,564,513,568,503,564,507" fill="#181818" style="stroke:#181818;stroke-width:1;stroke-linejoin:miter;stroke-miterlimit:10;"/><line x1="231" y1="665" x2="231" y2="700" style="stroke:#181818;stroke-width:1;"/><polygon points="227,690,231,700,235,690,231,694" fill="#181818" style="stroke:#181818;stroke-width:1;stroke-linejoin:miter;stroke-miterlimit:10;"/><line x1="114" y1="833" x2="114" y2="853" style="stroke:#181818;stroke-width:1;"/><polygon points="110,843,114,853,118,843,114,847" fill="#181818" style="stroke:#181818;stroke-width:1;stroke-linejoin:miter;stroke-miterlimit:10;"/><line x1="114" y1="885" x2="114" y2="905" style="stroke:#181818;stroke-width:1;"/><polygon points="110,895,114,905,118,895,114,899" fill="#181818" style="stroke:#181818;stroke-width:1;stroke-linejoin:miter;stroke-miterlimit:10;"/><line x1="114" y1="937" x2="114" y2="957" style="stroke:#181818;stroke-width:1;"/><polygon points="110,947,114,957,118,947,114,951" fill="#181818" style="stroke:#181818;stroke-width:1;stroke-linejoin:miter;stroke-miterlimit:10;"/><line x1="347" y1="833" x2="347" y2="853" style="stroke:#181818;stroke-width:1;"/><polygon points="343,843,347,853,351,843,347,847" fill="#181818" style="stroke:#181818;stroke-width:1;stroke-linejoin:miter;stroke-miterlimit:10;"/><line x1="347" y1="885" x2="347" y2="905" style="stroke:#181818;stroke-width:1;"/><polygon points="343,895,347,905,351,895,347,899" fill="#181818" style="stroke:#181818;stroke-width:1;stroke-linejoin:miter;stroke-miterlimit:10;"/><line x1="176" y1="779" x2="114" y2="779" style="stroke:#181818;stroke-width:1;"/><line x1="114" y1="779" x2="114" y2="801" style="stroke:#181818;stroke-width:1;"/><polygon points="110,791,114,801,118,791,114,795" fill="#181818" style="stroke:#181818;stroke-width:1;stroke-linejoin:miter;stroke-miterlimit:10;"/><line x1="285" y1="779" x2="347" y2="779" style="stroke:#181818;stroke-width:1;"/><line x1="347" y1="779" x2="347" y2="801" style="stroke:#181818;stroke-width:1;"/><polygon points="343,791,347,801,351,791,347,795" fill="#181818" style="stroke:#181818;stroke-width:1;stroke-linejoin:miter;stroke-miterlimit:10;"/><line x1="347" y1="937" x2="347" y2="984" style="stroke:#181818;stroke-width:1;"/><line x1="347" y1="984" x2="564" y2="984" style="stroke:#181818;stroke-width:1;"/><line x1="564" y1="984" x2="564" y2="999" style="stroke:#181818;stroke-width:1;"/><polygon points="560,989,564,999,568,989,564,993" fill="#181818" style="stroke:#181818;stroke-width:1;stroke-linejoin:miter;stroke-miterlimit:10;"/><line x1="231" y1="732" x2="231" y2="767" style="stroke:#181818;stroke-width:1;"/><polygon points="227,757,231,767,235,757,231,761" fill="#181818" style="stroke:#181818;stroke-width:1;stroke-linejoin:miter;stroke-miterlimit:10;"/><line x1="556" y1="665" x2="556" y2="700" style="stroke:#181818;stroke-width:1;"/><polygon points="552,690,556,700,560,690,556,694" fill="#181818" style="stroke:#181818;stroke-width:1;stroke-linejoin:miter;stroke-miterlimit:10;"/><line x1="556" y1="732" x2="556" y2="767" style="stroke:#181818;stroke-width:1;"/><polygon points="552,757,556,767,560,757,556,761" fill="#181818" style="stroke:#181818;stroke-width:1;stroke-linejoin:miter;stroke-miterlimit:10;"/><line x1="316" y1="611" x2="231" y2="611" style="stroke:#181818;stroke-width:1;"/><line x1="231" y1="611" x2="231" y2="633" style="stroke:#181818;stroke-width:1;"/><polygon points="227,623,231,633,235,623,231,627" fill="#181818" style="stroke:#181818;stroke-width:1;stroke-linejoin:miter;stroke-miterlimit:10;"/><line x1="471" y1="611" x2="556" y2="611" style="stroke:#181818;stroke-width:1;"/><line x1="556" y1="611" x2="556" y2="633" style="stroke:#181818;stroke-width:1;"/><polygon points="552,623,556,633,560,623,556,627" fill="#181818" style="stroke:#181818;stroke-width:1;stroke-linejoin:miter;stroke-miterlimit:10;"/><line x1="734" y1="631" x2="734" y2="666" style="stroke:#181818;stroke-width:1;"/><polygon points="730,656,734,666,738,656,734,660" fill="#181818" style="stroke:#181818;stroke-width:1;stroke-linejoin:miter;stroke-miterlimit:10;"/><line x1="734" y1="698" x2="734" y2="733" style="stroke:#181818;stroke-width:1;"/><polygon points="730,723,734,733,738,723,734,727" fill="#181818" style="stroke:#181818;stroke-width:1;stroke-linejoin:miter;stroke-miterlimit:10;"/><line x1="734" y1="765" x2="734" y2="800" style="stroke:#181818;stroke-width:1;"/><polygon points="730,790,734,800,738,790,734,794" fill="#181818" style="stroke:#181818;stroke-width:1;stroke-linejoin:miter;stroke-miterlimit:10;"/><line x1="518" y1="577" x2="394" y2="577" style="stroke:#181818;stroke-width:1;"/><line x1="394" y1="577" x2="394" y2="599" style="stroke:#181818;stroke-width:1;"/><polygon points="390,589,394,599,398,589,394,593" fill="#181818" style="stroke:#181818;stroke-width:1;stroke-linejoin:miter;stroke-miterlimit:10;"/><line x1="610" y1="577" x2="734" y2="577" style="stroke:#181818;stroke-width:1;"/><line x1="734" y1="577" x2="734" y2="599" style="stroke:#181818;stroke-width:1;"/><polygon points="730,589,734,599,738,589,734,593" fill="#181818" style="stroke:#181818;stroke-width:1;stroke-linejoin:miter;stroke-miterlimit:10;"/><line x1="564" y1="545" x2="564" y2="565" style="stroke:#181818;stroke-width:1;"/><polygon points="560,555,564,565,568,555,564,559" fill="#181818" style="stroke:#181818;stroke-width:1;stroke-linejoin:miter;stroke-miterlimit:10;"/><line x1="564" y1="185" x2="564" y2="205" style="stroke:#181818;stroke-width:1;"/><polygon points="560,195,564,205,568,195,564,199" fill="#181818" style="stroke:#181818;stroke-width:1;stroke-linejoin:miter;stroke-miterlimit:10;"/><line x1="622" y1="1011" x2="853" y2="1011" style="stroke:#181818;stroke-width:1;"/><polygon points="849,580,853,570,857,580,853,576" fill="#181818" style="stroke:#181818;stroke-width:1;stroke-linejoin:miter;stroke-miterlimit:10;"/><line x1="853" y1="173" x2="853" y2="1011" style="stroke:#181818;stroke-width:1;"/><line x1="853" y1="173" x2="576" y2="173" style="stroke:#181818;stroke-width:1;"/><polygon points="586,169,576,173,586,177,582,173" fill="#181818" style="stroke:#181818;stroke-width:1;stroke-linejoin:miter;stroke-miterlimit:10;"/><line x1="564" y1="141" x2="564" y2="161" style="stroke:#181818;stroke-width:1;"/><polygon points="560,151,564,161,568,151,564,155" fill="#181818" style="stroke:#181818;stroke-width:1;stroke-linejoin:miter;stroke-miterlimit:10;"/><line x1="564" y1="1023" x2="564" y2="1043" style="stroke:#181818;stroke-width:1;"/><polygon points="560,1033,564,1043,568,1033,564,1037" fill="#181818" style="stroke:#181818;stroke-width:1;stroke-linejoin:miter;stroke-miterlimit:10;"/></g></svg>
